<svg xmlns="http://www.w3.org/2000/svg" xmlns:xlink="http://www.w3.org/1999/xlink" width="500" zoomAndPan="magnify" viewBox="0 0 375 74.999997" height="100" preserveAspectRatio="xMidYMid meet" version="1.0"><defs><g/></defs><g fill="#000000" fill-opacity="1"><g transform="translate(13.691454, 54.929861)"><g><path d="M 11.09375 -13.3125 C 11.582031 -13.394531 12.070312 -13.484375 12.5625 -13.578125 C 13.0625 -13.679688 13.597656 -13.816406 14.171875 -13.984375 C 13.472656 -14.640625 12.550781 -15.050781 11.40625 -15.21875 C 11.28125 -14.5625 11.175781 -13.925781 11.09375 -13.3125 Z M 36.296875 -32.34375 C 36.128906 -30.582031 35.664062 -28.734375 34.90625 -26.796875 C 34.144531 -24.867188 33.085938 -23 31.734375 -21.1875 C 30.378906 -19.382812 28.734375 -17.703125 26.796875 -16.140625 C 24.867188 -14.578125 22.671875 -13.304688 20.203125 -12.328125 C 20.578125 -11.628906 20.925781 -10.890625 21.25 -10.109375 C 21.582031 -9.328125 21.875 -8.441406 22.125 -7.453125 C 22.488281 -6.140625 22.800781 -4.785156 23.0625 -3.390625 C 23.332031 -1.992188 23.5625 -0.640625 23.75 0.671875 C 23.9375 1.992188 24.101562 3.21875 24.25 4.34375 C 24.394531 5.46875 24.503906 6.398438 24.578125 7.140625 C 24.742188 8.378906 25.144531 9.253906 25.78125 9.765625 C 26.414062 10.273438 27.132812 10.5625 27.9375 10.625 C 28.738281 10.6875 29.539062 10.59375 30.34375 10.34375 C 31.144531 10.101562 31.769531 9.835938 32.21875 9.546875 C 32.175781 9.585938 31.953125 9.945312 31.546875 10.625 C 31.140625 11.300781 30.582031 12.019531 29.875 12.78125 C 29.175781 13.539062 28.34375 14.195312 27.375 14.75 C 26.414062 15.3125 25.34375 15.488281 24.15625 15.28125 C 23.332031 15.15625 22.601562 14.875 21.96875 14.4375 C 21.332031 14.007812 20.773438 13.375 20.296875 12.53125 C 19.828125 11.695312 19.445312 10.617188 19.15625 9.296875 C 18.875 7.984375 18.691406 6.382812 18.609375 4.5 C 18.523438 1.945312 18.429688 -0.484375 18.328125 -2.796875 C 18.222656 -5.117188 17.78125 -7.269531 17 -9.25 C 16.882812 -9.570312 16.765625 -9.882812 16.640625 -10.1875 C 16.515625 -10.5 16.367188 -10.78125 16.203125 -11.03125 C 14.515625 -10.613281 12.625 -10.347656 10.53125 -10.234375 C 10.25 -8.671875 9.941406 -7.066406 9.609375 -5.421875 C 9.285156 -3.773438 8.945312 -2.171875 8.59375 -0.609375 C 8.25 0.941406 7.878906 2.40625 7.484375 3.78125 C 7.097656 5.164062 6.71875 6.347656 6.34375 7.328125 C 5.9375 8.359375 5.410156 9.191406 4.765625 9.828125 C 4.128906 10.460938 3.113281 10.78125 1.71875 10.78125 C 0.90625 10.78125 0.191406 10.59375 -0.421875 10.21875 C -1.046875 9.851562 -1.644531 9.34375 -2.21875 8.6875 C -2.050781 8.5625 -1.789062 8.363281 -1.4375 8.09375 C -1.09375 7.832031 -0.679688 7.300781 -0.203125 6.5 C 0.265625 5.695312 0.773438 4.554688 1.328125 3.078125 C 1.878906 1.597656 2.441406 -0.390625 3.015625 -2.890625 C 3.222656 -3.921875 3.5 -5.125 3.84375 -6.5 C 4.195312 -7.875 4.578125 -9.382812 4.984375 -11.03125 C 3.347656 -11.9375 2.59375 -13.148438 2.71875 -14.671875 C 2.789062 -15.609375 3.21875 -16.40625 4 -17.0625 C 4.78125 -17.71875 5.726562 -18.171875 6.84375 -18.421875 C 7.375 -20.554688 7.914062 -22.710938 8.46875 -24.890625 C 9.019531 -27.066406 9.539062 -29.109375 10.03125 -31.015625 C 10.53125 -32.929688 10.984375 -34.660156 11.390625 -36.203125 C 11.804688 -37.742188 12.140625 -38.960938 12.390625 -39.859375 C 11.648438 -39.367188 10.910156 -38.816406 10.171875 -38.203125 C 9.515625 -37.671875 8.804688 -37.0625 8.046875 -36.375 C 7.285156 -35.695312 6.578125 -34.992188 5.921875 -34.265625 C 5.585938 -34.503906 5.316406 -34.765625 5.109375 -35.046875 C 4.910156 -35.335938 4.75 -35.585938 4.625 -35.796875 C 4.457031 -36.046875 4.332031 -36.3125 4.25 -36.59375 C 3.957031 -37.175781 3.8125 -37.804688 3.8125 -38.484375 C 3.8125 -39.160156 4.304688 -39.847656 5.296875 -40.546875 C 5.828125 -40.910156 6.632812 -41.441406 7.71875 -42.140625 C 8.8125 -42.835938 10.160156 -43.515625 11.765625 -44.171875 C 13.367188 -44.828125 15.226562 -45.398438 17.34375 -45.890625 C 19.457031 -46.390625 21.8125 -46.640625 24.40625 -46.640625 C 26.988281 -46.640625 29.082031 -46.125 30.6875 -45.09375 C 32.289062 -44.070312 33.519531 -42.820312 34.375 -41.34375 C 35.238281 -39.863281 35.800781 -38.300781 36.0625 -36.65625 C 36.332031 -35.019531 36.410156 -33.582031 36.296875 -32.34375 Z M 17.6875 -15.40625 C 19.125 -16.101562 20.550781 -16.960938 21.96875 -17.984375 C 23.382812 -19.015625 24.664062 -20.25 25.8125 -21.6875 C 26.96875 -23.125 27.9375 -24.753906 28.71875 -26.578125 C 29.5 -28.410156 29.988281 -30.476562 30.1875 -32.78125 C 30.351562 -34.832031 30.21875 -36.546875 29.78125 -37.921875 C 29.351562 -39.296875 28.71875 -40.394531 27.875 -41.21875 C 27.039062 -42.039062 26.085938 -42.625 25.015625 -42.96875 C 23.941406 -43.320312 22.875 -43.5 21.8125 -43.5 C 20.820312 -43.5 19.820312 -43.351562 18.8125 -43.0625 C 17.8125 -42.78125 16.835938 -42.410156 15.890625 -41.953125 C 16.015625 -41.910156 16.160156 -41.8125 16.328125 -41.65625 C 16.410156 -41.53125 16.503906 -41.375 16.609375 -41.1875 C 16.710938 -41 16.785156 -40.804688 16.828125 -40.609375 C 15.878906 -36.617188 15.113281 -33.289062 14.53125 -30.625 C 13.957031 -27.957031 13.488281 -25.78125 13.125 -24.09375 C 12.675781 -22.125 12.347656 -20.539062 12.140625 -19.34375 C 12.097656 -19.175781 12.066406 -19.007812 12.046875 -18.84375 C 12.023438 -18.6875 11.992188 -18.503906 11.953125 -18.296875 C 12.859375 -18.085938 13.800781 -17.769531 14.78125 -17.34375 C 15.769531 -16.914062 16.738281 -16.269531 17.6875 -15.40625 Z M 17.6875 -15.40625 "/></g></g></g><g fill="#000000" fill-opacity="1"><g transform="translate(46.535782, 54.929861)"><g><path d="M 18.234375 -9.796875 C 17.828125 -8.234375 17.273438 -6.773438 16.578125 -5.421875 C 15.878906 -4.066406 15.046875 -2.894531 14.078125 -1.90625 C 13.109375 -0.925781 12.019531 -0.160156 10.8125 0.390625 C 9.601562 0.953125 8.28125 1.234375 6.84375 1.234375 C 5.15625 1.234375 3.828125 0.875 2.859375 0.15625 C 1.898438 -0.5625 1.179688 -1.453125 0.703125 -2.515625 C 0.234375 -3.585938 -0.0507812 -4.757812 -0.15625 -6.03125 C -0.257812 -7.3125 -0.3125 -8.503906 -0.3125 -9.609375 C -0.3125 -10.390625 -0.21875 -11.25 -0.03125 -12.1875 C 0.15625 -13.132812 0.410156 -14.101562 0.734375 -15.09375 C 1.066406 -16.082031 1.488281 -17.066406 2 -18.046875 C 2.507812 -19.035156 3.113281 -19.941406 3.8125 -20.765625 C 4.0625 -21.460938 4.441406 -22.078125 4.953125 -22.609375 C 5.472656 -23.140625 6.070312 -23.582031 6.75 -23.9375 C 7.425781 -24.289062 8.15625 -24.554688 8.9375 -24.734375 C 9.71875 -24.921875 10.476562 -25.015625 11.21875 -25.015625 C 11.34375 -25.015625 11.453125 -24.992188 11.546875 -24.953125 C 11.648438 -24.910156 11.765625 -24.867188 11.890625 -24.828125 C 12.421875 -24.785156 13.085938 -24.578125 13.890625 -24.203125 C 14.691406 -23.835938 15.472656 -23.285156 16.234375 -22.546875 C 16.992188 -21.804688 17.640625 -20.867188 18.171875 -19.734375 C 18.710938 -18.609375 18.984375 -17.25 18.984375 -15.65625 C 18.984375 -15.320312 18.960938 -14.914062 18.921875 -14.4375 C 18.878906 -13.96875 18.835938 -13.570312 18.796875 -13.25 C 19.734375 -13.613281 20.71875 -14.0625 21.75 -14.59375 C 22.78125 -15.132812 23.773438 -15.703125 24.734375 -16.296875 C 25.703125 -16.890625 26.597656 -17.492188 27.421875 -18.109375 C 28.242188 -18.722656 28.898438 -19.28125 29.390625 -19.78125 C 29.796875 -20.144531 30.144531 -20.347656 30.4375 -20.390625 C 30.726562 -20.429688 30.929688 -20.347656 31.046875 -20.140625 C 31.171875 -19.941406 31.191406 -19.65625 31.109375 -19.28125 C 31.035156 -18.914062 30.8125 -18.503906 30.4375 -18.046875 C 30.226562 -17.804688 29.703125 -17.316406 28.859375 -16.578125 C 28.023438 -15.835938 27.03125 -15.035156 25.875 -14.171875 C 24.726562 -13.304688 23.476562 -12.460938 22.125 -11.640625 C 20.769531 -10.816406 19.472656 -10.203125 18.234375 -9.796875 Z M 7.828125 -19.15625 C 7.703125 -18.789062 7.640625 -18.398438 7.640625 -17.984375 C 7.640625 -17.328125 7.679688 -16.640625 7.765625 -15.921875 C 7.847656 -15.203125 8.050781 -14.554688 8.375 -13.984375 C 8.707031 -13.410156 9.234375 -12.925781 9.953125 -12.53125 C 10.671875 -12.144531 11.664062 -11.953125 12.9375 -11.953125 C 13.144531 -11.953125 13.347656 -11.960938 13.546875 -11.984375 C 13.753906 -12.003906 13.960938 -12.035156 14.171875 -12.078125 C 14.296875 -12.609375 14.410156 -13.085938 14.515625 -13.515625 C 14.617188 -13.953125 14.671875 -14.335938 14.671875 -14.671875 C 14.742188 -15.441406 14.738281 -16.238281 14.65625 -17.0625 C 14.582031 -17.882812 14.429688 -18.632812 14.203125 -19.3125 C 13.972656 -19.988281 13.679688 -20.539062 13.328125 -20.96875 C 12.984375 -21.40625 12.566406 -21.625 12.078125 -21.625 C 11.296875 -21.625 10.546875 -21.40625 9.828125 -20.96875 C 9.109375 -20.539062 8.441406 -19.9375 7.828125 -19.15625 Z M 3.875 -8.3125 C 3.875 -7.570312 3.914062 -6.84375 4 -6.125 C 4.082031 -5.40625 4.25 -4.769531 4.5 -4.21875 C 4.75 -3.664062 5.078125 -3.210938 5.484375 -2.859375 C 5.890625 -2.515625 6.421875 -2.34375 7.078125 -2.34375 C 7.816406 -2.34375 8.492188 -2.515625 9.109375 -2.859375 C 9.734375 -3.210938 10.289062 -3.664062 10.78125 -4.21875 C 11.269531 -4.769531 11.707031 -5.40625 12.09375 -6.125 C 12.488281 -6.84375 12.832031 -7.59375 13.125 -8.375 C 12.832031 -8.332031 12.550781 -8.300781 12.28125 -8.28125 C 12.019531 -8.257812 11.726562 -8.25 11.40625 -8.25 C 9.84375 -8.25 8.492188 -8.710938 7.359375 -9.640625 C 6.234375 -10.566406 5.363281 -11.75 4.75 -13.1875 C 4.5 -12.320312 4.289062 -11.476562 4.125 -10.65625 C 3.957031 -9.832031 3.875 -9.050781 3.875 -8.3125 Z M 3.875 -8.3125 "/></g></g></g><g fill="#000000" fill-opacity="1"><g transform="translate(68.843558, 54.929861)"><g><path d="M 31.609375 -12.265625 C 31.035156 -11.441406 30.296875 -10.421875 29.390625 -9.203125 C 28.484375 -7.992188 27.546875 -6.785156 26.578125 -5.578125 C 25.617188 -4.367188 24.675781 -3.257812 23.75 -2.25 C 22.820312 -1.238281 22.050781 -0.53125 21.4375 -0.125 C 21.03125 0.125 20.554688 0.328125 20.015625 0.484375 C 19.484375 0.648438 18.941406 0.753906 18.390625 0.796875 C 17.835938 0.835938 17.3125 0.804688 16.8125 0.703125 C 16.320312 0.597656 15.894531 0.425781 15.53125 0.1875 C 15.15625 -0.101562 14.847656 -0.515625 14.609375 -1.046875 C 14.398438 -1.492188 14.203125 -2.085938 14.015625 -2.828125 C 13.828125 -3.566406 13.753906 -4.492188 13.796875 -5.609375 C 12.816406 -3.960938 11.726562 -2.695312 10.53125 -1.8125 C 9.34375 -0.9375 8.210938 -0.289062 7.140625 0.125 C 5.910156 0.570312 4.679688 0.835938 3.453125 0.921875 C 2.878906 0.921875 2.257812 0.722656 1.59375 0.328125 C 0.9375 -0.0546875 0.382812 -0.664062 -0.0625 -1.5 C -0.507812 -2.34375 -0.796875 -3.429688 -0.921875 -4.765625 C -1.046875 -6.109375 -0.882812 -7.703125 -0.4375 -9.546875 C 0.144531 -12.054688 1.0625 -14.335938 2.3125 -16.390625 C 3.5625 -18.441406 4.925781 -20.195312 6.40625 -21.65625 C 7.882812 -23.113281 9.34375 -24.210938 10.78125 -24.953125 C 12.21875 -25.691406 13.410156 -26.019531 14.359375 -25.9375 C 15.460938 -25.726562 16.363281 -25.398438 17.0625 -24.953125 C 17.644531 -24.546875 18.023438 -23.941406 18.203125 -23.140625 C 18.390625 -22.335938 18.050781 -21.28125 17.1875 -19.96875 C 17.757812 -20.082031 18.238281 -20.160156 18.625 -20.203125 C 19.019531 -20.242188 19.320312 -20.265625 19.53125 -20.265625 C 19.78125 -20.265625 19.945312 -20.242188 20.03125 -20.203125 C 20.070312 -20.128906 20.09375 -19.957031 20.09375 -19.6875 C 20.09375 -19.414062 20.03125 -18.929688 19.90625 -18.234375 C 19.78125 -17.535156 19.59375 -16.585938 19.34375 -15.390625 C 19.101562 -14.203125 18.773438 -12.664062 18.359375 -10.78125 C 18.273438 -10.414062 18.203125 -10.078125 18.140625 -9.765625 C 18.078125 -9.453125 18.015625 -9.140625 17.953125 -8.828125 C 17.898438 -8.523438 17.832031 -8.164062 17.75 -7.75 C 17.664062 -7.34375 17.5625 -6.832031 17.4375 -6.21875 C 17.394531 -5.851562 17.382812 -5.453125 17.40625 -5.015625 C 17.425781 -4.585938 17.5 -4.1875 17.625 -3.8125 C 17.75 -3.445312 17.941406 -3.148438 18.203125 -2.921875 C 18.472656 -2.703125 18.851562 -2.59375 19.34375 -2.59375 C 19.757812 -2.59375 20.296875 -2.847656 20.953125 -3.359375 C 21.609375 -3.867188 22.304688 -4.523438 23.046875 -5.328125 C 23.785156 -6.128906 24.554688 -7.007812 25.359375 -7.96875 C 26.160156 -8.9375 26.910156 -9.875 27.609375 -10.78125 C 28.304688 -11.6875 28.929688 -12.488281 29.484375 -13.1875 C 30.035156 -13.882812 30.4375 -14.394531 30.6875 -14.71875 C 31.007812 -15.09375 31.332031 -15.3125 31.65625 -15.375 C 31.988281 -15.4375 32.238281 -15.34375 32.40625 -15.09375 C 32.570312 -14.84375 32.601562 -14.472656 32.5 -13.984375 C 32.394531 -13.492188 32.097656 -12.921875 31.609375 -12.265625 Z M 13.5625 -9.546875 C 13.757812 -10.367188 14 -11.332031 14.28125 -12.4375 C 14.570312 -13.550781 14.820312 -14.617188 15.03125 -15.640625 C 15.238281 -16.671875 15.394531 -17.523438 15.5 -18.203125 C 15.601562 -18.878906 15.570312 -19.195312 15.40625 -19.15625 C 15.195312 -19.113281 14.96875 -19.054688 14.71875 -18.984375 C 14.519531 -18.898438 14.253906 -18.835938 13.921875 -18.796875 C 13.597656 -18.753906 13.269531 -18.691406 12.9375 -18.609375 C 13.269531 -19.265625 13.460938 -19.804688 13.515625 -20.234375 C 13.578125 -20.671875 13.59375 -21.007812 13.5625 -21.25 C 13.519531 -21.539062 13.4375 -21.769531 13.3125 -21.9375 C 12.851562 -22.300781 12.0625 -22 10.9375 -21.03125 C 9.8125 -20.070312 8.507812 -18.300781 7.03125 -15.71875 C 6.40625 -14.644531 5.90625 -13.5 5.53125 -12.28125 C 5.164062 -11.070312 4.910156 -9.929688 4.765625 -8.859375 C 4.628906 -7.796875 4.601562 -6.863281 4.6875 -6.0625 C 4.769531 -5.269531 4.929688 -4.75 5.171875 -4.5 C 5.628906 -4.039062 6.144531 -3.820312 6.71875 -3.84375 C 7.289062 -3.863281 7.875 -4.03125 8.46875 -4.34375 C 9.0625 -4.65625 9.65625 -5.054688 10.25 -5.546875 C 10.851562 -6.035156 11.390625 -6.546875 11.859375 -7.078125 C 12.328125 -7.617188 12.71875 -8.113281 13.03125 -8.5625 C 13.34375 -9.019531 13.519531 -9.347656 13.5625 -9.546875 Z M 13.5625 -9.546875 "/></g></g></g><g fill="#000000" fill-opacity="1"><g transform="translate(93.800876, 54.929861)"><g><path d="M 19.59375 -11.765625 C 19.382812 -10.492188 19.1875 -9.28125 19 -8.125 C 18.820312 -6.976562 18.710938 -6.054688 18.671875 -5.359375 C 18.628906 -4.328125 18.8125 -3.585938 19.21875 -3.140625 C 19.632812 -2.691406 20.085938 -2.46875 20.578125 -2.46875 C 21.148438 -2.46875 21.859375 -2.753906 22.703125 -3.328125 C 23.546875 -3.898438 24.4375 -4.617188 25.375 -5.484375 C 26.320312 -6.347656 27.269531 -7.289062 28.21875 -8.3125 C 29.164062 -9.34375 30.039062 -10.316406 30.84375 -11.234375 C 31.644531 -12.160156 32.320312 -12.972656 32.875 -13.671875 C 33.425781 -14.367188 33.804688 -14.820312 34.015625 -15.03125 C 34.253906 -15.28125 34.507812 -15.425781 34.78125 -15.46875 C 35.050781 -15.507812 35.265625 -15.46875 35.421875 -15.34375 C 35.585938 -15.21875 35.671875 -14.988281 35.671875 -14.65625 C 35.671875 -14.332031 35.507812 -13.925781 35.1875 -13.4375 C 34.6875 -12.65625 34.046875 -11.738281 33.265625 -10.6875 C 32.484375 -9.644531 31.617188 -8.566406 30.671875 -7.453125 C 29.734375 -6.347656 28.738281 -5.257812 27.6875 -4.1875 C 26.644531 -3.125 25.597656 -2.179688 24.546875 -1.359375 C 23.503906 -0.535156 22.5 0.128906 21.53125 0.640625 C 20.570312 1.160156 19.703125 1.421875 18.921875 1.421875 C 18.335938 1.421875 17.789062 1.253906 17.28125 0.921875 C 16.769531 0.597656 16.304688 0.171875 15.890625 -0.359375 C 15.484375 -0.898438 15.164062 -1.5 14.9375 -2.15625 C 14.71875 -2.8125 14.628906 -3.46875 14.671875 -4.125 C 14.703125 -4.414062 14.757812 -4.910156 14.84375 -5.609375 C 13.125 -3.679688 11.390625 -2.148438 9.640625 -1.015625 C 7.898438 0.109375 6.226562 0.671875 4.625 0.671875 C 4.050781 0.671875 3.429688 0.523438 2.765625 0.234375 C 2.109375 -0.046875 1.523438 -0.515625 1.015625 -1.171875 C 0.503906 -1.828125 0.0859375 -2.6875 -0.234375 -3.75 C -0.566406 -4.820312 -0.691406 -6.117188 -0.609375 -7.640625 C -0.492188 -10.023438 -0.0234375 -12.285156 0.796875 -14.421875 C 1.617188 -16.554688 2.65625 -18.410156 3.90625 -19.984375 C 5.164062 -21.566406 6.582031 -22.820312 8.15625 -23.75 C 9.738281 -24.675781 11.332031 -25.140625 12.9375 -25.140625 C 13.632812 -25.140625 14.269531 -24.960938 14.84375 -24.609375 C 15.425781 -24.265625 15.921875 -23.8125 16.328125 -23.25 C 16.734375 -22.695312 17.070312 -22.09375 17.34375 -21.4375 C 17.613281 -20.78125 17.8125 -20.164062 17.9375 -19.59375 C 18.21875 -20.78125 18.476562 -21.945312 18.71875 -23.09375 C 18.96875 -24.25 19.21875 -25.34375 19.46875 -26.375 C 19.882812 -27.894531 20.316406 -29.535156 20.765625 -31.296875 C 21.171875 -32.816406 21.640625 -34.5625 22.171875 -36.53125 C 22.710938 -38.507812 23.3125 -40.585938 23.96875 -42.765625 C 24.375 -43.085938 24.757812 -43.332031 25.125 -43.5 C 25.5 -43.664062 25.851562 -43.789062 26.1875 -43.875 C 26.550781 -44 26.898438 -44.0625 27.234375 -44.0625 C 27.640625 -44.0625 28.003906 -44.007812 28.328125 -43.90625 C 28.660156 -43.800781 28.941406 -43.53125 29.171875 -43.09375 C 29.398438 -42.664062 29.554688 -42.019531 29.640625 -41.15625 C 29.722656 -40.289062 29.722656 -39.117188 29.640625 -37.640625 C 29.554688 -35.835938 29.234375 -33.867188 28.671875 -31.734375 C 28.117188 -29.597656 27.390625 -27.390625 26.484375 -25.109375 C 25.585938 -22.828125 24.550781 -20.546875 23.375 -18.265625 C 22.207031 -15.984375 20.945312 -13.816406 19.59375 -11.765625 Z M 15.953125 -10.96875 C 16.117188 -11.75 16.273438 -12.53125 16.421875 -13.3125 C 16.566406 -14.09375 16.738281 -14.894531 16.9375 -15.71875 C 16.863281 -15.675781 16.796875 -15.632812 16.734375 -15.59375 C 16.671875 -15.550781 16.597656 -15.507812 16.515625 -15.46875 C 16.054688 -15.257812 15.742188 -15.265625 15.578125 -15.484375 C 15.421875 -15.710938 15.34375 -16.078125 15.34375 -16.578125 C 15.34375 -16.816406 15.320312 -17.253906 15.28125 -17.890625 C 15.238281 -18.535156 15.125 -19.195312 14.9375 -19.875 C 14.757812 -20.550781 14.484375 -21.144531 14.109375 -21.65625 C 13.742188 -22.164062 13.226562 -22.421875 12.5625 -22.421875 C 11.625 -22.421875 10.660156 -21.9375 9.671875 -20.96875 C 8.679688 -20.007812 7.753906 -18.84375 6.890625 -17.46875 C 6.035156 -16.09375 5.316406 -14.625 4.734375 -13.0625 C 4.160156 -11.5 3.835938 -10.101562 3.765625 -8.875 C 3.679688 -6.90625 3.925781 -5.488281 4.5 -4.625 C 5.070312 -3.757812 5.851562 -3.328125 6.84375 -3.328125 C 7.582031 -3.328125 8.390625 -3.613281 9.265625 -4.1875 C 10.148438 -4.757812 11.015625 -5.457031 11.859375 -6.28125 C 12.703125 -7.101562 13.484375 -7.945312 14.203125 -8.8125 C 14.921875 -9.675781 15.503906 -10.394531 15.953125 -10.96875 Z M 15.953125 -10.96875 "/></g></g></g><g fill="#000000" fill-opacity="1"><g transform="translate(121.777441, 54.929861)"><g><path d="M 13.5625 -36.296875 C 13.4375 -35.835938 13.195312 -35.390625 12.84375 -34.953125 C 12.5 -34.523438 12.109375 -34.175781 11.671875 -33.90625 C 11.242188 -33.644531 10.800781 -33.472656 10.34375 -33.390625 C 9.894531 -33.304688 9.53125 -33.390625 9.25 -33.640625 C 8.382812 -34.296875 7.929688 -35.003906 7.890625 -35.765625 C 7.847656 -36.523438 8.03125 -37.242188 8.4375 -37.921875 C 8.851562 -38.597656 9.367188 -39.171875 9.984375 -39.640625 C 10.597656 -40.117188 11.128906 -40.398438 11.578125 -40.484375 C 12.035156 -40.566406 12.414062 -40.472656 12.71875 -40.203125 C 13.03125 -39.929688 13.265625 -39.582031 13.421875 -39.15625 C 13.585938 -38.726562 13.679688 -38.242188 13.703125 -37.703125 C 13.722656 -37.171875 13.675781 -36.703125 13.5625 -36.296875 Z M 5.046875 -23.171875 C 5.253906 -23.410156 5.644531 -23.613281 6.21875 -23.78125 C 6.789062 -23.945312 7.382812 -24.082031 8 -24.1875 C 8.625 -24.289062 9.191406 -24.351562 9.703125 -24.375 C 10.210938 -24.394531 10.507812 -24.382812 10.59375 -24.34375 C 10.632812 -24.300781 10.53125 -23.867188 10.28125 -23.046875 C 10.039062 -22.222656 9.734375 -21.253906 9.359375 -20.140625 C 8.992188 -19.035156 8.601562 -17.894531 8.1875 -16.71875 C 7.78125 -15.550781 7.472656 -14.597656 7.265625 -13.859375 C 7.066406 -13.117188 6.820312 -12.285156 6.53125 -11.359375 C 6.238281 -10.441406 5.976562 -9.539062 5.75 -8.65625 C 5.53125 -7.769531 5.378906 -6.9375 5.296875 -6.15625 C 5.210938 -5.375 5.273438 -4.78125 5.484375 -4.375 C 5.691406 -3.882812 5.914062 -3.546875 6.15625 -3.359375 C 6.40625 -3.171875 6.675781 -3.078125 6.96875 -3.078125 C 7.78125 -3.078125 8.8125 -3.53125 10.0625 -4.4375 C 11.320312 -5.34375 12.597656 -6.421875 13.890625 -7.671875 C 15.179688 -8.921875 16.378906 -10.191406 17.484375 -11.484375 C 18.597656 -12.785156 19.425781 -13.828125 19.96875 -14.609375 C 20.289062 -15.015625 20.625 -15.28125 20.96875 -15.40625 C 21.320312 -15.53125 21.613281 -15.507812 21.84375 -15.34375 C 22.070312 -15.175781 22.195312 -14.90625 22.21875 -14.53125 C 22.238281 -14.164062 22.101562 -13.738281 21.8125 -13.25 C 21.15625 -12.09375 20.1875 -10.722656 18.90625 -9.140625 C 17.632812 -7.566406 16.28125 -6.050781 14.84375 -4.59375 C 13.40625 -3.132812 12 -1.890625 10.625 -0.859375 C 9.25 0.160156 8.128906 0.691406 7.265625 0.734375 C 6.566406 0.773438 5.878906 0.660156 5.203125 0.390625 C 4.523438 0.128906 3.910156 -0.234375 3.359375 -0.703125 C 2.804688 -1.179688 2.34375 -1.738281 1.96875 -2.375 C 1.601562 -3.007812 1.398438 -3.675781 1.359375 -4.375 C 1.234375 -5.40625 1.234375 -6.8125 1.359375 -8.59375 C 1.484375 -10.382812 1.707031 -12.210938 2.03125 -14.078125 C 2.363281 -15.941406 2.785156 -17.71875 3.296875 -19.40625 C 3.804688 -21.09375 4.390625 -22.347656 5.046875 -23.171875 Z M 5.046875 -23.171875 "/></g></g></g><g fill="#000000" fill-opacity="1"><g transform="translate(136.567907, 54.929861)"><g><path d="M 27.90625 -12.8125 C 26.675781 -11.007812 25.28125 -9.253906 23.71875 -7.546875 C 22.15625 -5.835938 20.5 -4.316406 18.75 -2.984375 C 17.007812 -1.648438 15.222656 -0.570312 13.390625 0.25 C 11.566406 1.070312 9.796875 1.484375 8.078125 1.484375 C 7.171875 1.484375 6.191406 1.265625 5.140625 0.828125 C 4.097656 0.398438 3.144531 -0.265625 2.28125 -1.171875 C 1.414062 -2.078125 0.726562 -3.25 0.21875 -4.6875 C -0.289062 -6.125 -0.445312 -7.867188 -0.25 -9.921875 C -0.0820312 -11.609375 0.441406 -13.382812 1.328125 -15.25 C 2.210938 -17.113281 3.300781 -18.828125 4.59375 -20.390625 C 5.882812 -21.953125 7.34375 -23.242188 8.96875 -24.265625 C 10.59375 -25.296875 12.222656 -25.8125 13.859375 -25.8125 C 15.421875 -25.8125 16.550781 -25.421875 17.25 -24.640625 C 17.945312 -23.859375 18.253906 -22.894531 18.171875 -21.75 C 18.046875 -20.476562 17.6875 -19.304688 17.09375 -18.234375 C 16.5 -17.171875 15.789062 -16.207031 14.96875 -15.34375 C 14.144531 -14.476562 13.269531 -13.695312 12.34375 -13 C 11.425781 -12.300781 10.554688 -11.664062 9.734375 -11.09375 C 8.828125 -10.476562 7.960938 -9.890625 7.140625 -9.328125 C 6.328125 -8.773438 5.609375 -8.273438 4.984375 -7.828125 C 5.023438 -6.796875 5.207031 -5.929688 5.53125 -5.234375 C 5.863281 -4.535156 6.273438 -3.96875 6.765625 -3.53125 C 7.265625 -3.101562 7.832031 -2.796875 8.46875 -2.609375 C 9.101562 -2.429688 9.75 -2.34375 10.40625 -2.34375 C 11.8125 -2.34375 13.269531 -2.78125 14.78125 -3.65625 C 16.300781 -4.539062 17.789062 -5.609375 19.25 -6.859375 C 20.707031 -8.117188 22.0625 -9.425781 23.3125 -10.78125 C 24.570312 -12.132812 25.613281 -13.304688 26.4375 -14.296875 C 26.71875 -14.617188 27.007812 -14.8125 27.3125 -14.875 C 27.625 -14.9375 27.875 -14.894531 28.0625 -14.75 C 28.25 -14.613281 28.34375 -14.367188 28.34375 -14.015625 C 28.34375 -13.671875 28.195312 -13.269531 27.90625 -12.8125 Z M 12.140625 -22.296875 C 11.648438 -22.296875 11.0625 -22.050781 10.375 -21.5625 C 9.695312 -21.070312 9.03125 -20.363281 8.375 -19.4375 C 7.71875 -18.507812 7.101562 -17.378906 6.53125 -16.046875 C 5.957031 -14.710938 5.523438 -13.179688 5.234375 -11.453125 C 5.734375 -11.828125 6.269531 -12.207031 6.84375 -12.59375 C 7.414062 -12.988281 7.988281 -13.410156 8.5625 -13.859375 C 10.332031 -15.210938 11.566406 -16.40625 12.265625 -17.4375 C 12.960938 -18.46875 13.351562 -19.351562 13.4375 -20.09375 C 13.519531 -20.863281 13.4375 -21.421875 13.1875 -21.765625 C 12.9375 -22.117188 12.585938 -22.296875 12.140625 -22.296875 Z M 12.140625 -22.296875 "/></g></g></g><g fill="#000000" fill-opacity="1"><g transform="translate(157.520098, 54.929861)"><g/></g></g><g fill="#000000" fill-opacity="1"><g transform="translate(172.680267, 54.929861)"><g><path d="M -3.140625 8.8125 C -2.972656 8.6875 -2.710938 8.476562 -2.359375 8.1875 C -2.015625 7.90625 -1.609375 7.375 -1.140625 6.59375 C -0.671875 5.8125 -0.148438 4.679688 0.421875 3.203125 C 1.003906 1.722656 1.601562 -0.285156 2.21875 -2.828125 C 2.550781 -4.191406 2.984375 -5.921875 3.515625 -8.015625 C 4.046875 -10.109375 4.628906 -12.34375 5.265625 -14.71875 C 5.898438 -17.101562 6.546875 -19.554688 7.203125 -22.078125 C 7.859375 -24.609375 8.492188 -27.015625 9.109375 -29.296875 C 9.734375 -31.578125 10.289062 -33.640625 10.78125 -35.484375 C 11.269531 -37.335938 11.660156 -38.773438 11.953125 -39.796875 C 11.171875 -39.304688 10.410156 -38.753906 9.671875 -38.140625 C 9.015625 -37.609375 8.316406 -37.003906 7.578125 -36.328125 C 6.835938 -35.648438 6.117188 -34.941406 5.421875 -34.203125 C 4.890625 -34.648438 4.476562 -35.140625 4.1875 -35.671875 C 4.019531 -35.921875 3.878906 -36.1875 3.765625 -36.46875 C 3.515625 -37.09375 3.390625 -37.734375 3.390625 -38.390625 C 3.390625 -39.046875 3.898438 -39.722656 4.921875 -40.421875 C 5.460938 -40.785156 6.273438 -41.316406 7.359375 -42.015625 C 8.453125 -42.710938 9.796875 -43.398438 11.390625 -44.078125 C 12.992188 -44.765625 14.863281 -45.351562 17 -45.84375 C 19.132812 -46.332031 21.5 -46.578125 24.09375 -46.578125 C 26.675781 -46.578125 28.757812 -46.0625 30.34375 -45.03125 C 31.925781 -44.007812 33.140625 -42.757812 33.984375 -41.28125 C 34.828125 -39.800781 35.367188 -38.238281 35.609375 -36.59375 C 35.859375 -34.957031 35.921875 -33.519531 35.796875 -32.28125 C 35.546875 -29.976562 34.804688 -27.570312 33.578125 -25.0625 C 32.347656 -22.5625 30.644531 -20.253906 28.46875 -18.140625 C 26.289062 -16.023438 23.640625 -14.226562 20.515625 -12.75 C 17.390625 -11.269531 13.816406 -10.429688 9.796875 -10.234375 C 9.460938 -8.671875 9.128906 -7.066406 8.796875 -5.421875 C 8.472656 -3.773438 8.125 -2.160156 7.75 -0.578125 C 7.382812 0.992188 7.003906 2.46875 6.609375 3.84375 C 6.222656 5.226562 5.828125 6.410156 5.421875 7.390625 C 5.015625 8.460938 4.476562 9.316406 3.8125 9.953125 C 3.15625 10.585938 2.109375 10.90625 0.671875 10.90625 C -0.0664062 10.90625 -0.753906 10.71875 -1.390625 10.34375 C -2.023438 9.976562 -2.609375 9.46875 -3.140625 8.8125 Z M 11.453125 -19.28125 C 11.335938 -18.625 11.1875 -17.769531 11 -16.71875 C 10.8125 -15.675781 10.59375 -14.5 10.34375 -13.1875 C 11.457031 -13.351562 12.691406 -13.648438 14.046875 -14.078125 C 15.398438 -14.503906 16.753906 -15.085938 18.109375 -15.828125 C 19.460938 -16.566406 20.785156 -17.460938 22.078125 -18.515625 C 23.378906 -19.566406 24.5625 -20.78125 25.625 -22.15625 C 26.695312 -23.53125 27.59375 -25.085938 28.3125 -26.828125 C 29.03125 -28.578125 29.492188 -30.519531 29.703125 -32.65625 C 29.898438 -34.707031 29.785156 -36.421875 29.359375 -37.796875 C 28.929688 -39.171875 28.304688 -40.28125 27.484375 -41.125 C 26.660156 -41.96875 25.710938 -42.5625 24.640625 -42.90625 C 23.578125 -43.257812 22.507812 -43.4375 21.4375 -43.4375 C 20.414062 -43.4375 19.410156 -43.289062 18.421875 -43 C 17.429688 -42.71875 16.445312 -42.347656 15.46875 -41.890625 C 15.59375 -41.859375 15.734375 -41.757812 15.890625 -41.59375 C 16.140625 -41.34375 16.328125 -40.992188 16.453125 -40.546875 C 15.460938 -36.554688 14.648438 -33.226562 14.015625 -30.5625 C 13.378906 -27.894531 12.878906 -25.71875 12.515625 -24.03125 C 12.054688 -22.0625 11.703125 -20.476562 11.453125 -19.28125 Z M 11.453125 -19.28125 "/></g></g></g><g fill="#000000" fill-opacity="1"><g transform="translate(205.031662, 54.929861)"><g><path d="M 27.90625 -12.8125 C 26.675781 -11.007812 25.28125 -9.253906 23.71875 -7.546875 C 22.15625 -5.835938 20.5 -4.316406 18.75 -2.984375 C 17.007812 -1.648438 15.222656 -0.570312 13.390625 0.25 C 11.566406 1.070312 9.796875 1.484375 8.078125 1.484375 C 7.171875 1.484375 6.191406 1.265625 5.140625 0.828125 C 4.097656 0.398438 3.144531 -0.265625 2.28125 -1.171875 C 1.414062 -2.078125 0.726562 -3.25 0.21875 -4.6875 C -0.289062 -6.125 -0.445312 -7.867188 -0.25 -9.921875 C -0.0820312 -11.609375 0.441406 -13.382812 1.328125 -15.25 C 2.210938 -17.113281 3.300781 -18.828125 4.59375 -20.390625 C 5.882812 -21.953125 7.34375 -23.242188 8.96875 -24.265625 C 10.59375 -25.296875 12.222656 -25.8125 13.859375 -25.8125 C 15.421875 -25.8125 16.550781 -25.421875 17.25 -24.640625 C 17.945312 -23.859375 18.253906 -22.894531 18.171875 -21.75 C 18.046875 -20.476562 17.6875 -19.304688 17.09375 -18.234375 C 16.5 -17.171875 15.789062 -16.207031 14.96875 -15.34375 C 14.144531 -14.476562 13.269531 -13.695312 12.34375 -13 C 11.425781 -12.300781 10.554688 -11.664062 9.734375 -11.09375 C 8.828125 -10.476562 7.960938 -9.890625 7.140625 -9.328125 C 6.328125 -8.773438 5.609375 -8.273438 4.984375 -7.828125 C 5.023438 -6.796875 5.207031 -5.929688 5.53125 -5.234375 C 5.863281 -4.535156 6.273438 -3.96875 6.765625 -3.53125 C 7.265625 -3.101562 7.832031 -2.796875 8.46875 -2.609375 C 9.101562 -2.429688 9.75 -2.34375 10.40625 -2.34375 C 11.8125 -2.34375 13.269531 -2.78125 14.78125 -3.65625 C 16.300781 -4.539062 17.789062 -5.609375 19.25 -6.859375 C 20.707031 -8.117188 22.0625 -9.425781 23.3125 -10.78125 C 24.570312 -12.132812 25.613281 -13.304688 26.4375 -14.296875 C 26.71875 -14.617188 27.007812 -14.8125 27.3125 -14.875 C 27.625 -14.9375 27.875 -14.894531 28.0625 -14.75 C 28.25 -14.613281 28.34375 -14.367188 28.34375 -14.015625 C 28.34375 -13.671875 28.195312 -13.269531 27.90625 -12.8125 Z M 12.140625 -22.296875 C 11.648438 -22.296875 11.0625 -22.050781 10.375 -21.5625 C 9.695312 -21.070312 9.03125 -20.363281 8.375 -19.4375 C 7.71875 -18.507812 7.101562 -17.378906 6.53125 -16.046875 C 5.957031 -14.710938 5.523438 -13.179688 5.234375 -11.453125 C 5.734375 -11.828125 6.269531 -12.207031 6.84375 -12.59375 C 7.414062 -12.988281 7.988281 -13.410156 8.5625 -13.859375 C 10.332031 -15.210938 11.566406 -16.40625 12.265625 -17.4375 C 12.960938 -18.46875 13.351562 -19.351562 13.4375 -20.09375 C 13.519531 -20.863281 13.4375 -21.421875 13.1875 -21.765625 C 12.9375 -22.117188 12.585938 -22.296875 12.140625 -22.296875 Z M 12.140625 -22.296875 "/></g></g></g><g fill="#000000" fill-opacity="1"><g transform="translate(225.983853, 54.929861)"><g><path d="M 22.734375 -15.59375 C 22.898438 -15.832031 23.113281 -15.984375 23.375 -16.046875 C 23.644531 -16.109375 23.863281 -16.078125 24.03125 -15.953125 C 24.195312 -15.835938 24.289062 -15.632812 24.3125 -15.34375 C 24.332031 -15.050781 24.21875 -14.660156 23.96875 -14.171875 C 23.144531 -12.609375 22.066406 -10.921875 20.734375 -9.109375 C 19.398438 -7.304688 17.992188 -5.613281 16.515625 -4.03125 C 15.035156 -2.445312 13.597656 -1.140625 12.203125 -0.109375 C 10.804688 0.910156 9.632812 1.421875 8.6875 1.421875 C 7.332031 1.421875 6.203125 1.148438 5.296875 0.609375 C 4.390625 0.078125 3.679688 -0.578125 3.171875 -1.359375 C 2.660156 -2.140625 2.300781 -2.988281 2.09375 -3.90625 C 1.882812 -4.832031 1.820312 -5.6875 1.90625 -6.46875 C 1.945312 -7.125 2.09375 -8.300781 2.34375 -10 C 2.59375 -11.707031 2.921875 -13.679688 3.328125 -15.921875 C 3.734375 -18.160156 4.191406 -20.5625 4.703125 -23.125 C 5.222656 -25.695312 5.769531 -28.175781 6.34375 -30.5625 C 5.644531 -30.476562 4.945312 -30.394531 4.25 -30.3125 C 3.550781 -30.226562 2.914062 -30.1875 2.34375 -30.1875 C 1.03125 -30.1875 -0.207031 -30.335938 -1.375 -30.640625 C -2.550781 -30.953125 -3.425781 -31.253906 -4 -31.546875 C -4.332031 -31.710938 -4.476562 -31.945312 -4.4375 -32.25 C -4.394531 -32.5625 -4.269531 -32.867188 -4.0625 -33.171875 C -3.863281 -33.484375 -3.609375 -33.75 -3.296875 -33.96875 C -2.984375 -34.195312 -2.707031 -34.3125 -2.46875 -34.3125 C -1.6875 -34.238281 -0.84375 -34.171875 0.0625 -34.109375 C 0.96875 -34.046875 1.953125 -34.035156 3.015625 -34.078125 C 3.796875 -34.117188 4.546875 -34.175781 5.265625 -34.25 C 5.984375 -34.332031 6.691406 -34.4375 7.390625 -34.5625 C 7.921875 -36.539062 8.441406 -38.253906 8.953125 -39.703125 C 9.472656 -41.160156 9.9375 -42.179688 10.34375 -42.765625 C 10.46875 -42.960938 10.742188 -43.132812 11.171875 -43.28125 C 11.609375 -43.425781 12.070312 -43.53125 12.5625 -43.59375 C 13.0625 -43.65625 13.535156 -43.65625 13.984375 -43.59375 C 14.441406 -43.53125 14.769531 -43.375 14.96875 -43.125 C 15.175781 -42.800781 15.257812 -41.960938 15.21875 -40.609375 C 15.175781 -39.253906 14.953125 -37.523438 14.546875 -35.421875 C 16.265625 -35.421875 17.789062 -35.328125 19.125 -35.140625 C 20.46875 -34.960938 21.609375 -34.757812 22.546875 -34.53125 C 23.492188 -34.3125 24.253906 -34.085938 24.828125 -33.859375 C 25.398438 -33.628906 25.832031 -33.472656 26.125 -33.390625 C 26.414062 -33.304688 26.570312 -33.097656 26.59375 -32.765625 C 26.613281 -32.441406 26.550781 -32.101562 26.40625 -31.75 C 26.257812 -31.40625 26.019531 -31.109375 25.6875 -30.859375 C 25.363281 -30.617188 24.992188 -30.539062 24.578125 -30.625 C 24.171875 -30.664062 23.707031 -30.742188 23.1875 -30.859375 C 22.675781 -30.984375 22.0625 -31.085938 21.34375 -31.171875 C 20.625 -31.253906 19.769531 -31.335938 18.78125 -31.421875 C 17.800781 -31.503906 16.65625 -31.546875 15.34375 -31.546875 C 15.09375 -31.546875 14.8125 -31.535156 14.5 -31.515625 C 14.195312 -31.492188 13.882812 -31.484375 13.5625 -31.484375 C 13.394531 -30.828125 13.238281 -30.179688 13.09375 -29.546875 C 12.945312 -28.910156 12.753906 -28.242188 12.515625 -27.546875 C 11.972656 -25.898438 11.351562 -24.113281 10.65625 -22.1875 C 10.039062 -20.5 9.300781 -18.566406 8.4375 -16.390625 C 7.570312 -14.210938 6.609375 -11.890625 5.546875 -9.421875 C 5.296875 -7.660156 5.320312 -6.316406 5.625 -5.390625 C 5.9375 -4.460938 6.320312 -3.796875 6.78125 -3.390625 C 7.3125 -2.941406 7.96875 -2.695312 8.75 -2.65625 C 9.363281 -2.570312 10.113281 -2.785156 11 -3.296875 C 11.882812 -3.804688 12.796875 -4.492188 13.734375 -5.359375 C 14.679688 -6.222656 15.632812 -7.164062 16.59375 -8.1875 C 17.5625 -9.21875 18.457031 -10.222656 19.28125 -11.203125 C 20.101562 -12.191406 20.820312 -13.085938 21.4375 -13.890625 C 22.050781 -14.691406 22.484375 -15.257812 22.734375 -15.59375 Z M 22.734375 -15.59375 "/></g></g></g><g fill="#000000" fill-opacity="1"><g transform="translate(242.499602, 54.929861)"><g/></g></g><g fill="#000000" fill-opacity="1"><g transform="translate(257.659771, 54.929861)"><g><path d="M 13.25 11.453125 C 11.195312 11.453125 9.335938 10.957031 7.671875 9.96875 C 6.003906 8.988281 4.582031 7.632812 3.40625 5.90625 C 2.238281 4.1875 1.359375 2.164062 0.765625 -0.15625 C 0.171875 -2.476562 -0.0820312 -4.953125 0 -7.578125 C 0.0820312 -10.046875 0.398438 -12.71875 0.953125 -15.59375 C 1.503906 -18.46875 2.296875 -21.351562 3.328125 -24.25 C 4.359375 -27.144531 5.601562 -29.9375 7.0625 -32.625 C 8.519531 -35.3125 10.191406 -37.679688 12.078125 -39.734375 C 13.960938 -41.796875 16.054688 -43.453125 18.359375 -44.703125 C 20.660156 -45.953125 23.1875 -46.578125 25.9375 -46.578125 C 27.625 -46.578125 29.050781 -46.238281 30.21875 -45.5625 C 31.394531 -44.882812 32.34375 -43.988281 33.0625 -42.875 C 33.78125 -41.769531 34.28125 -40.519531 34.5625 -39.125 C 34.851562 -37.726562 34.976562 -36.3125 34.9375 -34.875 C 34.851562 -33.519531 34.65625 -32.203125 34.34375 -30.921875 C 34.039062 -29.648438 33.609375 -28.507812 33.046875 -27.5 C 32.492188 -26.5 31.816406 -25.703125 31.015625 -25.109375 C 30.222656 -24.515625 29.3125 -24.21875 28.28125 -24.21875 C 27.789062 -24.257812 27.316406 -24.421875 26.859375 -24.703125 C 26.453125 -24.953125 26.03125 -25.320312 25.59375 -25.8125 C 25.164062 -26.3125 24.769531 -27.03125 24.40625 -27.96875 C 25.507812 -28.425781 26.378906 -29.21875 27.015625 -30.34375 C 27.648438 -31.476562 28.132812 -32.660156 28.46875 -33.890625 C 28.832031 -35.285156 29.078125 -36.847656 29.203125 -38.578125 C 29.285156 -40.253906 28.9375 -41.484375 28.15625 -42.265625 C 27.375 -43.046875 26.492188 -43.4375 25.515625 -43.4375 C 23.578125 -43.4375 21.539062 -42.429688 19.40625 -40.421875 C 17.269531 -38.410156 15.285156 -35.6875 13.453125 -32.25 C 11.628906 -28.820312 10.09375 -24.828125 8.84375 -20.265625 C 7.59375 -15.710938 6.863281 -10.890625 6.65625 -5.796875 C 6.570312 -3.492188 6.722656 -1.539062 7.109375 0.0625 C 7.503906 1.664062 8.0625 2.976562 8.78125 4 C 9.5 5.03125 10.304688 5.769531 11.203125 6.21875 C 12.109375 6.675781 13.015625 6.90625 13.921875 6.90625 C 15.359375 6.90625 16.710938 6.59375 17.984375 5.96875 C 19.265625 5.351562 20.425781 4.59375 21.46875 3.6875 C 22.519531 2.789062 23.425781 1.859375 24.1875 0.890625 C 24.945312 -0.0664062 25.53125 -0.914062 25.9375 -1.65625 C 26.226562 -2.195312 26.535156 -2.523438 26.859375 -2.640625 C 27.191406 -2.765625 27.476562 -2.734375 27.71875 -2.546875 C 27.96875 -2.367188 28.132812 -2.082031 28.21875 -1.6875 C 28.300781 -1.300781 28.21875 -0.84375 27.96875 -0.3125 C 27.269531 1.082031 26.414062 2.476562 25.40625 3.875 C 24.40625 5.28125 23.273438 6.546875 22.015625 7.671875 C 20.765625 8.796875 19.398438 9.707031 17.921875 10.40625 C 16.453125 11.101562 14.894531 11.453125 13.25 11.453125 Z M 13.25 11.453125 "/></g></g></g><g fill="#000000" fill-opacity="1"><g transform="translate(289.764697, 54.929861)"><g><path d="M 31.609375 -12.265625 C 31.035156 -11.441406 30.296875 -10.421875 29.390625 -9.203125 C 28.484375 -7.992188 27.546875 -6.785156 26.578125 -5.578125 C 25.617188 -4.367188 24.675781 -3.257812 23.75 -2.25 C 22.820312 -1.238281 22.050781 -0.53125 21.4375 -0.125 C 21.03125 0.125 20.554688 0.328125 20.015625 0.484375 C 19.484375 0.648438 18.941406 0.753906 18.390625 0.796875 C 17.835938 0.835938 17.3125 0.804688 16.8125 0.703125 C 16.320312 0.597656 15.894531 0.425781 15.53125 0.1875 C 15.15625 -0.101562 14.847656 -0.515625 14.609375 -1.046875 C 14.398438 -1.492188 14.203125 -2.085938 14.015625 -2.828125 C 13.828125 -3.566406 13.753906 -4.492188 13.796875 -5.609375 C 12.816406 -3.960938 11.726562 -2.695312 10.53125 -1.8125 C 9.34375 -0.9375 8.210938 -0.289062 7.140625 0.125 C 5.910156 0.570312 4.679688 0.835938 3.453125 0.921875 C 2.878906 0.921875 2.257812 0.722656 1.59375 0.328125 C 0.9375 -0.0546875 0.382812 -0.664062 -0.0625 -1.5 C -0.507812 -2.34375 -0.796875 -3.429688 -0.921875 -4.765625 C -1.046875 -6.109375 -0.882812 -7.703125 -0.4375 -9.546875 C 0.144531 -12.054688 1.0625 -14.335938 2.3125 -16.390625 C 3.5625 -18.441406 4.925781 -20.195312 6.40625 -21.65625 C 7.882812 -23.113281 9.34375 -24.210938 10.78125 -24.953125 C 12.21875 -25.691406 13.410156 -26.019531 14.359375 -25.9375 C 15.460938 -25.726562 16.363281 -25.398438 17.0625 -24.953125 C 17.644531 -24.546875 18.023438 -23.941406 18.203125 -23.140625 C 18.390625 -22.335938 18.050781 -21.28125 17.1875 -19.96875 C 17.757812 -20.082031 18.238281 -20.160156 18.625 -20.203125 C 19.019531 -20.242188 19.320312 -20.265625 19.53125 -20.265625 C 19.78125 -20.265625 19.945312 -20.242188 20.03125 -20.203125 C 20.070312 -20.128906 20.09375 -19.957031 20.09375 -19.6875 C 20.09375 -19.414062 20.03125 -18.929688 19.90625 -18.234375 C 19.78125 -17.535156 19.59375 -16.585938 19.34375 -15.390625 C 19.101562 -14.203125 18.773438 -12.664062 18.359375 -10.78125 C 18.273438 -10.414062 18.203125 -10.078125 18.140625 -9.765625 C 18.078125 -9.453125 18.015625 -9.140625 17.953125 -8.828125 C 17.898438 -8.523438 17.832031 -8.164062 17.75 -7.75 C 17.664062 -7.34375 17.5625 -6.832031 17.4375 -6.21875 C 17.394531 -5.851562 17.382812 -5.453125 17.40625 -5.015625 C 17.425781 -4.585938 17.5 -4.1875 17.625 -3.8125 C 17.75 -3.445312 17.941406 -3.148438 18.203125 -2.921875 C 18.472656 -2.703125 18.851562 -2.59375 19.34375 -2.59375 C 19.757812 -2.59375 20.296875 -2.847656 20.953125 -3.359375 C 21.609375 -3.867188 22.304688 -4.523438 23.046875 -5.328125 C 23.785156 -6.128906 24.554688 -7.007812 25.359375 -7.96875 C 26.160156 -8.9375 26.910156 -9.875 27.609375 -10.78125 C 28.304688 -11.6875 28.929688 -12.488281 29.484375 -13.1875 C 30.035156 -13.882812 30.4375 -14.394531 30.6875 -14.71875 C 31.007812 -15.09375 31.332031 -15.3125 31.65625 -15.375 C 31.988281 -15.4375 32.238281 -15.34375 32.40625 -15.09375 C 32.570312 -14.84375 32.601562 -14.472656 32.5 -13.984375 C 32.394531 -13.492188 32.097656 -12.921875 31.609375 -12.265625 Z M 13.5625 -9.546875 C 13.757812 -10.367188 14 -11.332031 14.28125 -12.4375 C 14.570312 -13.550781 14.820312 -14.617188 15.03125 -15.640625 C 15.238281 -16.671875 15.394531 -17.523438 15.5 -18.203125 C 15.601562 -18.878906 15.570312 -19.195312 15.40625 -19.15625 C 15.195312 -19.113281 14.96875 -19.054688 14.71875 -18.984375 C 14.519531 -18.898438 14.253906 -18.835938 13.921875 -18.796875 C 13.597656 -18.753906 13.269531 -18.691406 12.9375 -18.609375 C 13.269531 -19.265625 13.460938 -19.804688 13.515625 -20.234375 C 13.578125 -20.671875 13.59375 -21.007812 13.5625 -21.25 C 13.519531 -21.539062 13.4375 -21.769531 13.3125 -21.9375 C 12.851562 -22.300781 12.0625 -22 10.9375 -21.03125 C 9.8125 -20.070312 8.507812 -18.300781 7.03125 -15.71875 C 6.40625 -14.644531 5.90625 -13.5 5.53125 -12.28125 C 5.164062 -11.070312 4.910156 -9.929688 4.765625 -8.859375 C 4.628906 -7.796875 4.601562 -6.863281 4.6875 -6.0625 C 4.769531 -5.269531 4.929688 -4.75 5.171875 -4.5 C 5.628906 -4.039062 6.144531 -3.820312 6.71875 -3.84375 C 7.289062 -3.863281 7.875 -4.03125 8.46875 -4.34375 C 9.0625 -4.65625 9.65625 -5.054688 10.25 -5.546875 C 10.851562 -6.035156 11.390625 -6.546875 11.859375 -7.078125 C 12.328125 -7.617188 12.71875 -8.113281 13.03125 -8.5625 C 13.34375 -9.019531 13.519531 -9.347656 13.5625 -9.546875 Z M 13.5625 -9.546875 "/></g></g></g><g fill="#000000" fill-opacity="1"><g transform="translate(314.722022, 54.929861)"><g><path d="M -2.34375 -0.3125 C -2.625 0.144531 -2.9375 0.441406 -3.28125 0.578125 C -3.632812 0.722656 -3.945312 0.742188 -4.21875 0.640625 C -4.488281 0.546875 -4.664062 0.332031 -4.75 0 C -4.832031 -0.332031 -4.75 -0.742188 -4.5 -1.234375 C -4.375 -1.484375 -4.09375 -2.035156 -3.65625 -2.890625 C -3.226562 -3.753906 -2.71875 -4.789062 -2.125 -6 C -1.53125 -7.21875 -0.882812 -8.535156 -0.1875 -9.953125 C 0.507812 -11.367188 1.175781 -12.710938 1.8125 -13.984375 C 2.445312 -15.253906 3.03125 -16.394531 3.5625 -17.40625 C 4.101562 -18.414062 4.5 -19.144531 4.75 -19.59375 C 4.289062 -20 3.976562 -20.296875 3.8125 -20.484375 C 3.65625 -20.671875 3.535156 -21.070312 3.453125 -21.6875 C 3.367188 -22.21875 3.488281 -22.914062 3.8125 -23.78125 C 4.144531 -24.644531 4.578125 -25.476562 5.109375 -26.28125 C 5.648438 -27.082031 6.25 -27.769531 6.90625 -28.34375 C 7.5625 -28.914062 8.195312 -29.203125 8.8125 -29.203125 C 9.957031 -29.203125 10.765625 -28.832031 11.234375 -28.09375 C 11.710938 -27.351562 11.992188 -26.59375 12.078125 -25.8125 C 12.160156 -25.28125 12.117188 -24.601562 11.953125 -23.78125 C 11.785156 -22.957031 11.476562 -22.21875 11.03125 -21.5625 C 11.15625 -21.476562 11.316406 -21.382812 11.515625 -21.28125 C 11.722656 -21.1875 12.054688 -21.140625 12.515625 -21.140625 C 13.171875 -21.140625 13.628906 -21.175781 13.890625 -21.25 C 14.160156 -21.332031 14.582031 -21.375 15.15625 -21.375 C 15.851562 -21.375 16.425781 -21.195312 16.875 -20.84375 C 17.332031 -20.5 17.703125 -20.070312 17.984375 -19.5625 C 18.273438 -19.050781 18.492188 -18.492188 18.640625 -17.890625 C 18.785156 -17.296875 18.878906 -16.753906 18.921875 -16.265625 C 19.035156 -15.234375 18.765625 -14.164062 18.109375 -13.0625 C 17.453125 -11.957031 16.65625 -10.742188 15.71875 -9.421875 C 15.132812 -8.597656 14.554688 -7.671875 13.984375 -6.640625 C 13.410156 -5.617188 13.164062 -4.695312 13.25 -3.875 C 13.332031 -3.34375 13.472656 -2.910156 13.671875 -2.578125 C 13.878906 -2.253906 14.457031 -2.09375 15.40625 -2.09375 C 16.101562 -2.09375 16.875 -2.347656 17.71875 -2.859375 C 18.5625 -3.378906 19.421875 -4.035156 20.296875 -4.828125 C 21.179688 -5.628906 22.054688 -6.515625 22.921875 -7.484375 C 23.785156 -8.453125 24.585938 -9.394531 25.328125 -10.3125 C 26.066406 -11.238281 26.691406 -12.070312 27.203125 -12.8125 C 27.710938 -13.550781 28.09375 -14.085938 28.34375 -14.421875 C 28.550781 -14.742188 28.816406 -14.96875 29.140625 -15.09375 C 29.472656 -15.21875 29.757812 -15.21875 30 -15.09375 C 30.25 -14.96875 30.40625 -14.71875 30.46875 -14.34375 C 30.53125 -13.976562 30.375 -13.488281 30 -12.875 C 29.757812 -12.46875 29.335938 -11.8125 28.734375 -10.90625 C 28.140625 -10 27.421875 -8.988281 26.578125 -7.875 C 25.742188 -6.769531 24.8125 -5.632812 23.78125 -4.46875 C 22.757812 -3.300781 21.679688 -2.234375 20.546875 -1.265625 C 19.421875 -0.296875 18.289062 0.492188 17.15625 1.109375 C 16.03125 1.722656 14.953125 2.03125 13.921875 2.03125 C 12.859375 2.03125 11.976562 1.820312 11.28125 1.40625 C 10.582031 1 10.015625 0.5 9.578125 -0.09375 C 9.148438 -0.6875 8.84375 -1.34375 8.65625 -2.0625 C 8.46875 -2.78125 8.394531 -3.445312 8.4375 -4.0625 C 8.476562 -4.5625 8.613281 -5.085938 8.84375 -5.640625 C 9.070312 -6.191406 9.335938 -6.765625 9.640625 -7.359375 C 9.953125 -7.953125 10.28125 -8.546875 10.625 -9.140625 C 10.976562 -9.742188 11.296875 -10.332031 11.578125 -10.90625 C 12.273438 -12.09375 12.835938 -13.109375 13.265625 -13.953125 C 13.703125 -14.796875 13.921875 -15.503906 13.921875 -16.078125 C 13.921875 -16.453125 13.835938 -16.78125 13.671875 -17.0625 C 13.515625 -17.351562 13.25 -17.5 12.875 -17.5 C 12.632812 -17.5 12.460938 -17.488281 12.359375 -17.46875 C 12.253906 -17.445312 12.148438 -17.4375 12.046875 -17.4375 C 11.941406 -17.4375 11.796875 -17.425781 11.609375 -17.40625 C 11.429688 -17.382812 11.15625 -17.375 10.78125 -17.375 C 10.25 -17.375 9.796875 -17.457031 9.421875 -17.625 C 9.054688 -17.789062 8.707031 -17.910156 8.375 -17.984375 C 8.21875 -17.703125 7.847656 -17.085938 7.265625 -16.140625 C 6.691406 -15.191406 6.023438 -14.082031 5.265625 -12.8125 C 4.503906 -11.539062 3.703125 -10.207031 2.859375 -8.8125 C 2.023438 -7.414062 1.238281 -6.109375 0.5 -4.890625 C -0.238281 -3.679688 -0.863281 -2.65625 -1.375 -1.8125 C -1.894531 -0.96875 -2.21875 -0.46875 -2.34375 -0.3125 Z M -2.34375 -0.3125 "/></g></g></g><g fill="#000000" fill-opacity="1"><g transform="translate(337.830828, 54.929861)"><g><path d="M 27.90625 -12.8125 C 26.675781 -11.007812 25.28125 -9.253906 23.71875 -7.546875 C 22.15625 -5.835938 20.5 -4.316406 18.75 -2.984375 C 17.007812 -1.648438 15.222656 -0.570312 13.390625 0.25 C 11.566406 1.070312 9.796875 1.484375 8.078125 1.484375 C 7.171875 1.484375 6.191406 1.265625 5.140625 0.828125 C 4.097656 0.398438 3.144531 -0.265625 2.28125 -1.171875 C 1.414062 -2.078125 0.726562 -3.25 0.21875 -4.6875 C -0.289062 -6.125 -0.445312 -7.867188 -0.25 -9.921875 C -0.0820312 -11.609375 0.441406 -13.382812 1.328125 -15.25 C 2.210938 -17.113281 3.300781 -18.828125 4.59375 -20.390625 C 5.882812 -21.953125 7.34375 -23.242188 8.96875 -24.265625 C 10.59375 -25.296875 12.222656 -25.8125 13.859375 -25.8125 C 15.421875 -25.8125 16.550781 -25.421875 17.25 -24.640625 C 17.945312 -23.859375 18.253906 -22.894531 18.171875 -21.75 C 18.046875 -20.476562 17.6875 -19.304688 17.09375 -18.234375 C 16.5 -17.171875 15.789062 -16.207031 14.96875 -15.34375 C 14.144531 -14.476562 13.269531 -13.695312 12.34375 -13 C 11.425781 -12.300781 10.554688 -11.664062 9.734375 -11.09375 C 8.828125 -10.476562 7.960938 -9.890625 7.140625 -9.328125 C 6.328125 -8.773438 5.609375 -8.273438 4.984375 -7.828125 C 5.023438 -6.796875 5.207031 -5.929688 5.53125 -5.234375 C 5.863281 -4.535156 6.273438 -3.96875 6.765625 -3.53125 C 7.265625 -3.101562 7.832031 -2.796875 8.46875 -2.609375 C 9.101562 -2.429688 9.75 -2.34375 10.40625 -2.34375 C 11.8125 -2.34375 13.269531 -2.78125 14.78125 -3.65625 C 16.300781 -4.539062 17.789062 -5.609375 19.25 -6.859375 C 20.707031 -8.117188 22.0625 -9.425781 23.3125 -10.78125 C 24.570312 -12.132812 25.613281 -13.304688 26.4375 -14.296875 C 26.71875 -14.617188 27.007812 -14.8125 27.3125 -14.875 C 27.625 -14.9375 27.875 -14.894531 28.0625 -14.75 C 28.25 -14.613281 28.34375 -14.367188 28.34375 -14.015625 C 28.34375 -13.671875 28.195312 -13.269531 27.90625 -12.8125 Z M 12.140625 -22.296875 C 11.648438 -22.296875 11.0625 -22.050781 10.375 -21.5625 C 9.695312 -21.070312 9.03125 -20.363281 8.375 -19.4375 C 7.71875 -18.507812 7.101562 -17.378906 6.53125 -16.046875 C 5.957031 -14.710938 5.523438 -13.179688 5.234375 -11.453125 C 5.734375 -11.828125 6.269531 -12.207031 6.84375 -12.59375 C 7.414062 -12.988281 7.988281 -13.410156 8.5625 -13.859375 C 10.332031 -15.210938 11.566406 -16.40625 12.265625 -17.4375 C 12.960938 -18.46875 13.351562 -19.351562 13.4375 -20.09375 C 13.519531 -20.863281 13.4375 -21.421875 13.1875 -21.765625 C 12.9375 -22.117188 12.585938 -22.296875 12.140625 -22.296875 Z M 12.140625 -22.296875 "/></g></g></g></svg>